# xmcd
#
# Track frame offsets:
#	150
#	11480
#	21789
#	37646
#	53863
#	65629
#	76178
#	84519
#	95432
#	108564
#	121276
#	134017
#
# Disc length: 1915 seconds
#
# Revision: 0
# Processed by: cddbd v1.5.2PL0 Copyright (c) Steve Scherf et al.
# Submitted via: audiograbber 1.83.01
#
DISCID=9207790c
DTITLE=Vern Young - The True Country Sound
DYEAR=1900
DGENRE=
TTITLE0=You're No Longer a Sweetheart of Mine
TTITLE1=Each Season Changes You
TTITLE2=Walking My Lord Up Calvary's Hill
TTITLE3=The Fields Have Turned Brown
TTITLE4=Heads You Win
TTITLE5=I Haven't Got the Right to Love You
TTITLE6=Wildfire
TTITLE7=Scene of the Crime
TTITLE8=Too Old to Die Young
TTITLE9=-Blank--
TTITLE10=The Rebel Soldier
TTITLE11=Fireball Mail (inst)
EXTD=
EXTT0=
EXTT1=
EXTT2=
EXTT3=
EXTT4=
EXTT5=
EXTT6=
EXTT7=
EXTT8=
EXTT9=(Blank)
EXTT10=
EXTT11=
PLAYORDER=
